<svg viewBox="0 0 262 262" xmlns="http://www.w3.org/2000/svg">
  <rect width="262" height="262" fill="#0066CC" rx="32"/>
  <g fill-rule="evenodd" transform="translate(31, 31)">
    <path d="M151.552 143.4l91.208-91.207a10.97 10.97 0 0 0 0-15.514L227.246 21.16a10.97 10.97 0 0 0-15.514 0L120.52 112.37l25.842 25.842 5.19 5.189z" fill="#FFFFFF"/>
    <path d="M131.623 241.667c61.662 0 111.66-49.998 111.66-111.66 0-61.662-49.998-111.66-111.66-111.66-61.662 0-111.66 49.998-111.66 111.66 0 61.662 49.998 111.66 111.66 111.66zm0-15.514c-53.076 0-96.146-43.07-96.146-96.146s43.07-96.146 96.146-96.146 96.146 43.07 96.146 96.146-43.07 96.146-96.146 96.146z" fill="#FFFFFF"/>
  </g>
</svg>